<mxfile host="app.diagrams.net" modified="2022-03-30T20:40:33.587Z" agent="5.0 (Macintosh; Intel Mac OS X 10_13_6) AppleWebKit/537.36 (KHTML, like Gecko) Chrome/99.0.4844.84 Safari/537.36" etag="0bfx9l6Ey3czpSMiLtYX" version="17.2.5" type="github">
  <diagram id="kgpKYQtTHZ0yAKxKKP6v" name="Page-1">
    <mxGraphModel dx="2022" dy="747" grid="0" gridSize="10" guides="1" tooltips="1" connect="1" arrows="1" fold="1" page="1" pageScale="1" pageWidth="850" pageHeight="1100" math="0" shadow="0">
      <root>
        <mxCell id="0" />
        <mxCell id="1" parent="0" />
        <mxCell id="ydbiIihksrAPeCNRWMHY-1" value="Customer" style="shape=umlLifeline;perimeter=lifelinePerimeter;whiteSpace=wrap;html=1;container=1;collapsible=0;recursiveResize=0;outlineConnect=0;" vertex="1" parent="1">
          <mxGeometry x="25" y="5" width="100" height="1094" as="geometry" />
        </mxCell>
        <mxCell id="ydbiIihksrAPeCNRWMHY-10" value="" style="html=1;points=[];perimeter=orthogonalPerimeter;" vertex="1" parent="ydbiIihksrAPeCNRWMHY-1">
          <mxGeometry x="45" y="101" width="10" height="156" as="geometry" />
        </mxCell>
        <mxCell id="ydbiIihksrAPeCNRWMHY-21" value="" style="html=1;points=[];perimeter=orthogonalPerimeter;" vertex="1" parent="ydbiIihksrAPeCNRWMHY-1">
          <mxGeometry x="45" y="348" width="10" height="192" as="geometry" />
        </mxCell>
        <mxCell id="ydbiIihksrAPeCNRWMHY-2" value="Receptionist" style="shape=umlLifeline;perimeter=lifelinePerimeter;whiteSpace=wrap;html=1;container=1;collapsible=0;recursiveResize=0;outlineConnect=0;" vertex="1" parent="1">
          <mxGeometry x="544" y="6" width="100" height="1094" as="geometry" />
        </mxCell>
        <mxCell id="ydbiIihksrAPeCNRWMHY-37" value="" style="html=1;points=[];perimeter=orthogonalPerimeter;" vertex="1" parent="ydbiIihksrAPeCNRWMHY-2">
          <mxGeometry x="45" y="594" width="10" height="178" as="geometry" />
        </mxCell>
        <mxCell id="ydbiIihksrAPeCNRWMHY-77" value="" style="html=1;points=[];perimeter=orthogonalPerimeter;" vertex="1" parent="ydbiIihksrAPeCNRWMHY-2">
          <mxGeometry x="45" y="977" width="10" height="19" as="geometry" />
        </mxCell>
        <mxCell id="ydbiIihksrAPeCNRWMHY-80" value="SwitchDRVStatus" style="html=1;verticalAlign=bottom;endArrow=block;rounded=0;entryX=0.014;entryY=1.009;entryDx=0;entryDy=0;entryPerimeter=0;" edge="1" parent="ydbiIihksrAPeCNRWMHY-2">
          <mxGeometry width="80" relative="1" as="geometry">
            <mxPoint x="55" y="996" as="sourcePoint" />
            <mxPoint x="227.1400000000001" y="996.171" as="targetPoint" />
          </mxGeometry>
        </mxCell>
        <mxCell id="ydbiIihksrAPeCNRWMHY-3" value="Delivery Driver" style="shape=umlLifeline;perimeter=lifelinePerimeter;whiteSpace=wrap;html=1;container=1;collapsible=0;recursiveResize=0;outlineConnect=0;" vertex="1" parent="1">
          <mxGeometry x="726" y="6" width="100" height="1093" as="geometry" />
        </mxCell>
        <mxCell id="ydbiIihksrAPeCNRWMHY-5" value="Menu" style="shape=umlLifeline;participant=umlEntity;perimeter=lifelinePerimeter;whiteSpace=wrap;html=1;container=1;collapsible=0;recursiveResize=0;verticalAlign=top;spacingTop=36;outlineConnect=0;" vertex="1" parent="1">
          <mxGeometry x="202" y="5" width="40" height="1094" as="geometry" />
        </mxCell>
        <mxCell id="ydbiIihksrAPeCNRWMHY-12" value="" style="html=1;points=[];perimeter=orthogonalPerimeter;" vertex="1" parent="ydbiIihksrAPeCNRWMHY-5">
          <mxGeometry x="15" y="101" width="10" height="156" as="geometry" />
        </mxCell>
        <mxCell id="ydbiIihksrAPeCNRWMHY-6" value="Coupon" style="shape=umlLifeline;participant=umlEntity;perimeter=lifelinePerimeter;whiteSpace=wrap;html=1;container=1;collapsible=0;recursiveResize=0;verticalAlign=top;spacingTop=36;outlineConnect=0;" vertex="1" parent="1">
          <mxGeometry x="431" y="4" width="40" height="1096" as="geometry" />
        </mxCell>
        <mxCell id="ydbiIihksrAPeCNRWMHY-22" value="" style="html=1;points=[];perimeter=orthogonalPerimeter;" vertex="1" parent="ydbiIihksrAPeCNRWMHY-6">
          <mxGeometry x="15" y="349" width="10" height="16" as="geometry" />
        </mxCell>
        <mxCell id="ydbiIihksrAPeCNRWMHY-7" value="Order" style="shape=umlLifeline;participant=umlEntity;perimeter=lifelinePerimeter;whiteSpace=wrap;html=1;container=1;collapsible=0;recursiveResize=0;verticalAlign=top;spacingTop=36;outlineConnect=0;" vertex="1" parent="1">
          <mxGeometry x="318" y="4" width="40" height="1096" as="geometry" />
        </mxCell>
        <mxCell id="ydbiIihksrAPeCNRWMHY-24" value="" style="html=1;points=[];perimeter=orthogonalPerimeter;" vertex="1" parent="ydbiIihksrAPeCNRWMHY-7">
          <mxGeometry x="15" y="409" width="10" height="230" as="geometry" />
        </mxCell>
        <mxCell id="ydbiIihksrAPeCNRWMHY-53" value="" style="html=1;points=[];perimeter=orthogonalPerimeter;" vertex="1" parent="ydbiIihksrAPeCNRWMHY-7">
          <mxGeometry x="15" y="733" width="10" height="41" as="geometry" />
        </mxCell>
        <mxCell id="ydbiIihksrAPeCNRWMHY-69" value="" style="html=1;points=[];perimeter=orthogonalPerimeter;" vertex="1" parent="ydbiIihksrAPeCNRWMHY-7">
          <mxGeometry x="15" y="957" width="10" height="22" as="geometry" />
        </mxCell>
        <mxCell id="ydbiIihksrAPeCNRWMHY-11" value="ViewAllITM" style="html=1;verticalAlign=bottom;endArrow=block;rounded=0;" edge="1" parent="1">
          <mxGeometry width="80" relative="1" as="geometry">
            <mxPoint x="81" y="106" as="sourcePoint" />
            <mxPoint x="217" y="106" as="targetPoint" />
          </mxGeometry>
        </mxCell>
        <mxCell id="ydbiIihksrAPeCNRWMHY-13" value="loop" style="shape=umlFrame;whiteSpace=wrap;html=1;" vertex="1" parent="1">
          <mxGeometry x="5" y="64" width="278" height="233" as="geometry" />
        </mxCell>
        <mxCell id="ydbiIihksrAPeCNRWMHY-14" value="AddITM" style="html=1;verticalAlign=bottom;endArrow=block;rounded=0;" edge="1" parent="1">
          <mxGeometry width="80" relative="1" as="geometry">
            <mxPoint x="81" y="160" as="sourcePoint" />
            <mxPoint x="217" y="160" as="targetPoint" />
          </mxGeometry>
        </mxCell>
        <mxCell id="ydbiIihksrAPeCNRWMHY-15" value="DeleteITM" style="html=1;verticalAlign=bottom;endArrow=block;rounded=0;" edge="1" parent="1">
          <mxGeometry width="80" relative="1" as="geometry">
            <mxPoint x="81" y="213" as="sourcePoint" />
            <mxPoint x="217" y="213" as="targetPoint" />
          </mxGeometry>
        </mxCell>
        <mxCell id="ydbiIihksrAPeCNRWMHY-16" value="UpdateITM" style="html=1;verticalAlign=bottom;endArrow=block;rounded=0;" edge="1" parent="1">
          <mxGeometry width="80" relative="1" as="geometry">
            <mxPoint x="81" y="262" as="sourcePoint" />
            <mxPoint x="217" y="262" as="targetPoint" />
          </mxGeometry>
        </mxCell>
        <mxCell id="ydbiIihksrAPeCNRWMHY-17" value="opt" style="shape=umlFrame;whiteSpace=wrap;html=1;" vertex="1" parent="1">
          <mxGeometry x="7.5" y="187" width="271" height="40" as="geometry" />
        </mxCell>
        <mxCell id="ydbiIihksrAPeCNRWMHY-18" value="opt" style="shape=umlFrame;whiteSpace=wrap;html=1;" vertex="1" parent="1">
          <mxGeometry x="7.5" y="237" width="271" height="40" as="geometry" />
        </mxCell>
        <mxCell id="ydbiIihksrAPeCNRWMHY-19" value="UseCPN" style="html=1;verticalAlign=bottom;endArrow=block;rounded=0;" edge="1" parent="1">
          <mxGeometry width="80" relative="1" as="geometry">
            <mxPoint x="80" y="353" as="sourcePoint" />
            <mxPoint x="446" y="353" as="targetPoint" />
          </mxGeometry>
        </mxCell>
        <mxCell id="ydbiIihksrAPeCNRWMHY-23" value="opt" style="shape=umlFrame;whiteSpace=wrap;html=1;" vertex="1" parent="1">
          <mxGeometry x="5" y="329" width="519" height="48" as="geometry" />
        </mxCell>
        <mxCell id="ydbiIihksrAPeCNRWMHY-25" value="ConfirmORD" style="html=1;verticalAlign=bottom;endArrow=block;rounded=0;" edge="1" parent="1">
          <mxGeometry width="80" relative="1" as="geometry">
            <mxPoint x="80" y="413" as="sourcePoint" />
            <mxPoint x="333" y="413" as="targetPoint" />
          </mxGeometry>
        </mxCell>
        <mxCell id="ydbiIihksrAPeCNRWMHY-26" value="CancelORD" style="html=1;verticalAlign=bottom;endArrow=block;rounded=0;" edge="1" parent="1">
          <mxGeometry width="80" relative="1" as="geometry">
            <mxPoint x="81" y="544.97" as="sourcePoint" />
            <mxPoint x="334" y="544.97" as="targetPoint" />
          </mxGeometry>
        </mxCell>
        <mxCell id="ydbiIihksrAPeCNRWMHY-27" value="ViewAllORD" style="html=1;verticalAlign=bottom;endArrow=block;rounded=0;" edge="1" parent="1">
          <mxGeometry width="80" relative="1" as="geometry">
            <mxPoint x="81" y="479" as="sourcePoint" />
            <mxPoint x="334" y="479" as="targetPoint" />
          </mxGeometry>
        </mxCell>
        <mxCell id="ydbiIihksrAPeCNRWMHY-30" value="[until CUST is ready to check out]" style="text;html=1;resizable=0;autosize=1;align=center;verticalAlign=middle;points=[];fillColor=none;strokeColor=none;rounded=0;" vertex="1" parent="1">
          <mxGeometry x="64" y="67" width="188" height="18" as="geometry" />
        </mxCell>
        <mxCell id="ydbiIihksrAPeCNRWMHY-35" value="loop" style="shape=umlFrame;whiteSpace=wrap;html=1;" vertex="1" parent="1">
          <mxGeometry x="5" y="434" width="390" height="125" as="geometry" />
        </mxCell>
        <mxCell id="ydbiIihksrAPeCNRWMHY-36" value="[until CUST completes cancellations]" style="text;html=1;resizable=0;autosize=1;align=center;verticalAlign=middle;points=[];fillColor=none;strokeColor=none;rounded=0;" vertex="1" parent="1">
          <mxGeometry x="103" y="437" width="205" height="18" as="geometry" />
        </mxCell>
        <mxCell id="ydbiIihksrAPeCNRWMHY-38" value="ViewAllORD" style="html=1;verticalAlign=bottom;endArrow=block;rounded=0;exitX=-0.15;exitY=0.012;exitDx=0;exitDy=0;exitPerimeter=0;" edge="1" parent="1">
          <mxGeometry width="80" relative="1" as="geometry">
            <mxPoint x="588.5" y="600.244" as="sourcePoint" />
            <mxPoint x="342" y="600" as="targetPoint" />
          </mxGeometry>
        </mxCell>
        <mxCell id="ydbiIihksrAPeCNRWMHY-39" value="DLVROption" style="html=1;verticalAlign=bottom;endArrow=open;dashed=1;endSize=8;rounded=0;" edge="1" parent="1">
          <mxGeometry relative="1" as="geometry">
            <mxPoint x="344" y="643" as="sourcePoint" />
            <mxPoint x="590" y="643" as="targetPoint" />
          </mxGeometry>
        </mxCell>
        <mxCell id="ydbiIihksrAPeCNRWMHY-42" value="" style="html=1;points=[];perimeter=orthogonalPerimeter;" vertex="1" parent="1">
          <mxGeometry x="70" y="1052" width="10" height="23" as="geometry" />
        </mxCell>
        <mxCell id="ydbiIihksrAPeCNRWMHY-44" value="" style="html=1;points=[];perimeter=orthogonalPerimeter;" vertex="1" parent="1">
          <mxGeometry x="333" y="1052" width="10" height="23" as="geometry" />
        </mxCell>
        <mxCell id="ydbiIihksrAPeCNRWMHY-45" value="RateORD" style="html=1;verticalAlign=bottom;endArrow=block;rounded=0;" edge="1" parent="1">
          <mxGeometry width="80" relative="1" as="geometry">
            <mxPoint x="81" y="1052" as="sourcePoint" />
            <mxPoint x="333" y="1052" as="targetPoint" />
          </mxGeometry>
        </mxCell>
        <mxCell id="ydbiIihksrAPeCNRWMHY-48" value="" style="html=1;points=[];perimeter=orthogonalPerimeter;" vertex="1" parent="1">
          <mxGeometry x="70" y="700" width="10" height="37" as="geometry" />
        </mxCell>
        <mxCell id="ydbiIihksrAPeCNRWMHY-50" value="NotifyCUST" style="html=1;verticalAlign=bottom;endArrow=block;rounded=0;" edge="1" parent="1">
          <mxGeometry width="80" relative="1" as="geometry">
            <mxPoint x="589" y="700" as="sourcePoint" />
            <mxPoint x="80" y="700" as="targetPoint" />
          </mxGeometry>
        </mxCell>
        <mxCell id="ydbiIihksrAPeCNRWMHY-56" value="PICKS_UP" style="html=1;verticalAlign=bottom;endArrow=open;dashed=1;endSize=8;rounded=0;entryX=0.006;entryY=-0.004;entryDx=0;entryDy=0;entryPerimeter=0;" edge="1" parent="1" target="ydbiIihksrAPeCNRWMHY-53">
          <mxGeometry relative="1" as="geometry">
            <mxPoint x="80" y="737" as="sourcePoint" />
            <mxPoint x="332" y="737" as="targetPoint" />
          </mxGeometry>
        </mxCell>
        <mxCell id="ydbiIihksrAPeCNRWMHY-57" value="FinalizeORD" style="html=1;verticalAlign=bottom;endArrow=block;rounded=0;" edge="1" parent="1">
          <mxGeometry width="80" relative="1" as="geometry">
            <mxPoint x="589" y="778" as="sourcePoint" />
            <mxPoint x="343" y="778" as="targetPoint" />
          </mxGeometry>
        </mxCell>
        <mxCell id="ydbiIihksrAPeCNRWMHY-62" value="" style="html=1;points=[];perimeter=orthogonalPerimeter;" vertex="1" parent="1">
          <mxGeometry x="589" y="812" width="10" height="78" as="geometry" />
        </mxCell>
        <mxCell id="ydbiIihksrAPeCNRWMHY-63" value="" style="html=1;points=[];perimeter=orthogonalPerimeter;" vertex="1" parent="1">
          <mxGeometry x="771" y="812" width="10" height="190" as="geometry" />
        </mxCell>
        <mxCell id="ydbiIihksrAPeCNRWMHY-64" value="ViewAllDRV" style="html=1;verticalAlign=bottom;endArrow=block;rounded=0;" edge="1" parent="1" target="ydbiIihksrAPeCNRWMHY-63">
          <mxGeometry width="80" relative="1" as="geometry">
            <mxPoint x="599" y="812" as="sourcePoint" />
            <mxPoint x="679" y="812" as="targetPoint" />
          </mxGeometry>
        </mxCell>
        <mxCell id="ydbiIihksrAPeCNRWMHY-65" value="SwitchDRVStatus" style="html=1;verticalAlign=bottom;endArrow=block;rounded=0;" edge="1" parent="1">
          <mxGeometry width="80" relative="1" as="geometry">
            <mxPoint x="599" y="890" as="sourcePoint" />
            <mxPoint x="771" y="890" as="targetPoint" />
          </mxGeometry>
        </mxCell>
        <mxCell id="ydbiIihksrAPeCNRWMHY-66" value="NotifyDRV" style="html=1;verticalAlign=bottom;endArrow=block;rounded=0;" edge="1" parent="1">
          <mxGeometry width="80" relative="1" as="geometry">
            <mxPoint x="599" y="850.85" as="sourcePoint" />
            <mxPoint x="771" y="850.85" as="targetPoint" />
          </mxGeometry>
        </mxCell>
        <mxCell id="ydbiIihksrAPeCNRWMHY-67" value="NotifyCUST" style="html=1;verticalAlign=bottom;endArrow=block;rounded=0;exitX=-0.15;exitY=0.012;exitDx=0;exitDy=0;exitPerimeter=0;entryX=1.01;entryY=-0.001;entryDx=0;entryDy=0;entryPerimeter=0;" edge="1" parent="1" target="ydbiIihksrAPeCNRWMHY-68">
          <mxGeometry width="80" relative="1" as="geometry">
            <mxPoint x="770.5" y="926.1940000000002" as="sourcePoint" />
            <mxPoint x="81" y="925" as="targetPoint" />
          </mxGeometry>
        </mxCell>
        <mxCell id="ydbiIihksrAPeCNRWMHY-68" value="" style="html=1;points=[];perimeter=orthogonalPerimeter;" vertex="1" parent="1">
          <mxGeometry x="70" y="925" width="10" height="36" as="geometry" />
        </mxCell>
        <mxCell id="ydbiIihksrAPeCNRWMHY-72" value="DELIVERS" style="html=1;verticalAlign=bottom;endArrow=open;dashed=1;endSize=8;rounded=0;" edge="1" parent="1">
          <mxGeometry relative="1" as="geometry">
            <mxPoint x="80" y="961" as="sourcePoint" />
            <mxPoint x="333" y="961" as="targetPoint" />
          </mxGeometry>
        </mxCell>
        <mxCell id="ydbiIihksrAPeCNRWMHY-78" value="FinalizeORD" style="html=1;verticalAlign=bottom;endArrow=block;rounded=0;" edge="1" parent="1">
          <mxGeometry width="80" relative="1" as="geometry">
            <mxPoint x="589" y="983" as="sourcePoint" />
            <mxPoint x="342" y="983" as="targetPoint" />
          </mxGeometry>
        </mxCell>
        <mxCell id="ydbiIihksrAPeCNRWMHY-86" value="opt" style="shape=umlFrame;whiteSpace=wrap;html=1;" vertex="1" parent="1">
          <mxGeometry x="5" y="1022" width="390" height="74" as="geometry" />
        </mxCell>
        <mxCell id="ydbiIihksrAPeCNRWMHY-87" value="alt" style="shape=umlFrame;whiteSpace=wrap;html=1;" vertex="1" parent="1">
          <mxGeometry x="5" y="665" width="810" height="347" as="geometry" />
        </mxCell>
        <mxCell id="ydbiIihksrAPeCNRWMHY-88" value="[DLVROption = PU]" style="text;html=1;resizable=0;autosize=1;align=center;verticalAlign=middle;points=[];fillColor=none;strokeColor=none;rounded=0;" vertex="1" parent="1">
          <mxGeometry x="80" y="671" width="114" height="18" as="geometry" />
        </mxCell>
        <mxCell id="ydbiIihksrAPeCNRWMHY-89" value="" style="endArrow=none;dashed=1;html=1;rounded=0;exitX=0.001;exitY=0.389;exitDx=0;exitDy=0;exitPerimeter=0;" edge="1" parent="1" source="ydbiIihksrAPeCNRWMHY-87">
          <mxGeometry width="50" height="50" relative="1" as="geometry">
            <mxPoint x="348" y="843" as="sourcePoint" />
            <mxPoint x="816" y="795" as="targetPoint" />
          </mxGeometry>
        </mxCell>
        <mxCell id="ydbiIihksrAPeCNRWMHY-90" value="[DLVROption = DLVR]" style="text;html=1;resizable=0;autosize=1;align=center;verticalAlign=middle;points=[];fillColor=none;strokeColor=none;rounded=0;" vertex="1" parent="1">
          <mxGeometry x="5" y="801" width="128" height="18" as="geometry" />
        </mxCell>
      </root>
    </mxGraphModel>
  </diagram>
</mxfile>
